# xmcd
#
# Track frame offsets:
# 150
# 18595
# 35969
# 56897
# 80987
# 108002
# 129850
# 156052
# 176259
# 197491
# 217344
#
# Disc length: 3207 seconds
#
# Revision: 0
# Processed by: cddbd v1.5.1PL0 Copyright (c) Steve Scherf et al.
# Submitted via: Audion 3.0.2 (http://www.panic.com/audion/)
#
DISCID=990c850b
DTITLE=Youssou N'Dour - Joko
DYEAR=1900
DGENRE=
TTITLE0=Wiri-wiri
TTITLE1=Birima
TTITLE2=Mademba
TTITLE3=This Dream
TTITLE4=Yama
TTITLE5=She doesn't need to fall
TTITLE6=Miss
TTITLE7=Beykat
TTITLE8=Ligeey
TTITLE9=My hope is in you
TTITLE10=Red Clay
EXTD=
EXTT0=
EXTT1=
EXTT2=
EXTT3=
EXTT4=
EXTT5=
EXTT6=
EXTT7=
EXTT8=
EXTT9=
EXTT10=
PLAYORDER=
